<!-- Generator: Adobe Illustrator 23.0.2, SVG Export Plug-In  -->
<svg version="1.1" xmlns="http://www.w3.org/2000/svg" xmlns:xlink="http://www.w3.org/1999/xlink" x="0px" y="0px"
	 width="33.709px" height="36.291px" viewBox="0 0 33.709 36.291" style="enable-background:new 0 0 33.709 36.291;"
	 xml:space="preserve">
<style type="text/css">
	.st0{fill:#FFFFFF;}
</style>
<defs>
</defs>
<path class="st0" d="M32.523,10.849c1.229,0.027,1.621,1.621,0.608,2.255c-3.484,2.228-7.604,3.403-6.712,8.873
	c0.446,2.715,3.971,6.672,5.389,9.076c0.621,1.053-0.608,2.215-1.648,1.648c-4.592-2.539-9.17-6.591-14.383-4.2
	c-3.836,1.769-7.523,5.186-11.021,7.59c-1.04,0.716-2.201-0.648-1.648-1.634c2.377-4.308,4.74-8.603,7.117-12.898
	c0.095-0.176,0.203-0.297,0.338-0.392c-3.43-2.769-6.807-5.564-10.183-8.373c-0.972-0.824,0.108-2.188,1.148-1.972
	c2.215,0.446,6.375,2.174,8.265,0.891c2.512-1.715,2.039-7.712,2.309-10.548c0.108-1.243,1.513-1.567,2.242-0.608
	c1.216,1.607,2.336,3.214,3.228,5.024c0.216,0.459,1.121,3.579,1.58,4.011C21.921,12.186,28.89,10.795,32.523,10.849z
	 M27.877,13.199c-3.133-0.054-6.253-0.094-9.386-0.149c-0.527-0.014-1.026-0.365-1.161-0.891c-0.743-2.796-1.796-5.254-3.214-7.617
	c-0.432,3.268-1.026,6.483-1.823,9.724c-0.162,0.662-0.851,0.959-1.472,0.824c-1.877-0.378-3.755-0.756-5.632-1.135
	c2.336,2.093,4.673,4.173,6.982,6.294c0.432,0.392,0.311,0.891-0.014,1.175c0.297,0.351,0.419,0.837,0.135,1.351
	c-1.54,2.796-3.079,5.591-4.632,8.387c1.972-1.351,3.93-2.715,5.902-4.052c1.459-0.986,3.12-2.539,4.997-2.661
	c2.58-0.176,5.429,1.391,8.049,3.093c-1.472-2.188-2.89-4.443-3.619-6.618c-0.257-0.783-0.797-1.553-0.662-2.404
	C22.705,16.333,25.338,14.59,27.877,13.199z"/>
</svg>