<!-- Generator: Adobe Illustrator 23.0.2, SVG Export Plug-In  -->
<svg version="1.1" xmlns="http://www.w3.org/2000/svg" xmlns:xlink="http://www.w3.org/1999/xlink" x="0px" y="0px"
	 width="82.804px" height="82.915px" viewBox="0 0 82.804 82.915" style="enable-background:new 0 0 82.804 82.915;"
	 xml:space="preserve">
<style type="text/css">
	.st0{fill:#FFFFFF;}
	.st1{fill:#E7BC3D;}
</style>
<defs>
</defs>
<g>
	<path class="st0" d="M81.346,17.096c1.337-0.527,1.999,1.499,0.918,2.201c-6.78,4.403-13.56,8.806-20.353,13.222
		c-3.012,1.958-6.037,3.917-9.049,5.875c-4.038,2.62-5.834,3.863-4.052,8.738c2.066,5.713,4.984,10.953,6.766,16.828
		c1.769,5.807,2.917,11.736,3.701,17.76c0.135,1.026-1.432,1.607-2.066,0.851C48.46,72.091,41.018,60.732,34.9,48.537
		C27.189,59.22,17.856,68.35,6.957,75.818c-0.986,0.675-2.336-0.675-1.648-1.648c7.401-10.669,14.802-21.339,22.217-32.008
		c-9.17-7.171-18.151-14.586-27.16-21.96c-0.932-0.756,0.081-2.323,1.161-1.985c10.251,3.228,19.705,7.86,28.51,13.965
		c1.985-10.764,5.011-21.177,9.116-31.346c0.486-1.189,2.377-1.135,2.363,0.324c-0.068,10.467-0.149,20.934-0.216,31.4
		C54.645,27.401,67.989,22.242,81.346,17.096z M58.427,31.898c4.295-2.782,8.59-5.578,12.884-8.36
		c-10.305,3.971-20.609,7.955-30.914,11.939c-0.743,0.284-1.526-0.446-1.526-1.161c0.067-8.819,0.122-17.625,0.189-26.444
		c-3.093,8.684-5.429,17.544-7.023,26.673c-0.122,0.729-1.175,1.148-1.769,0.729c-7.198-5.186-14.87-9.332-23.054-12.52
		c7.253,5.969,14.505,11.939,21.622,18.07c0.945-0.216,2.039,0.716,1.351,1.715c-6.24,8.981-12.479,17.976-18.719,26.971
		c8.684-6.793,16.22-14.748,22.581-23.878c0.473-0.675,1.648-0.878,2.08,0c5.551,11.385,12.249,22.027,20.11,31.913
		c-1.188-7.117-3.052-14.086-5.726-20.812c-1.378-3.484-7.212-10.926-5.726-15.059c0.527-1.513,2.282-2.364,3.471-3.16
		C51.606,36.247,55.037,34.1,58.427,31.898z"/>
	<path class="st1" d="M71.311,23.538c-4.295,2.782-8.59,5.578-12.884,8.36c-3.39,2.201-6.82,4.349-10.17,6.618
		c-1.188,0.797-2.944,1.648-3.471,3.16c-1.486,4.133,4.349,11.574,5.726,15.059c2.674,6.726,4.538,13.695,5.726,20.812
		c-7.86-9.886-14.559-20.528-20.11-31.913c-0.432-0.878-1.607-0.675-2.08,0c-6.361,9.13-13.897,17.084-22.581,23.878
		c6.239-8.995,12.479-17.989,18.719-26.971c0.689-0.999-0.405-1.931-1.351-1.715c-7.117-6.132-14.37-12.101-21.622-18.07
		c8.184,3.187,15.855,7.333,23.054,12.52c0.594,0.419,1.648,0,1.769-0.729c1.594-9.13,3.93-17.989,7.023-26.673
		c-0.068,8.819-0.122,17.625-0.189,26.444c0,0.716,0.783,1.445,1.526,1.161C50.702,31.493,61.006,27.509,71.311,23.538z"/>
	<path class="st0" d="M68.92,49.536c0.756,0.675-0.202,1.756-1.026,1.337c-2.701-1.404-5.105-3.187-7.914-4.416
		c-0.77-0.324-0.216-1.634,0.567-1.337C63.397,46.187,66.638,47.47,68.92,49.536z"/>
	<path class="st0" d="M66.733,39.002c0.716-0.121,1.513,0.797,0.81,1.378c-1.999,1.58-5.483,1.823-7.955,1.661
		c-0.918-0.054-0.918-1.391,0-1.431c1.283-0.054,2.553-0.176,3.795-0.5C64.518,39.826,65.585,39.191,66.733,39.002z"/>
	<path class="st0" d="M60.128,11.019c0.891-0.581,1.85,0.729,1.107,1.432c-2.282,2.242-5.105,4.052-7.631,6.01
		c-0.837,0.648-2.039-0.486-1.188-1.188C54.929,15.192,57.387,12.801,60.128,11.019z"/>
	<path class="st0" d="M49.284,10.019c0.918-0.729,2.053,0.378,1.296,1.296c-1.634,1.958-2.269,3.876-1.972,6.402
		c0.108,0.891-1.215,0.945-1.472,0.203C46.218,15.273,47.069,11.775,49.284,10.019z"/>
	<path class="st0" d="M41.369,68.309c0.689,0.837-0.432,2.012-1.215,1.215c-2.039-2.066-3.025-5.362-2.444-8.184
		c0.149-0.702,1.202-0.5,1.202,0.162C38.952,64.217,39.641,66.202,41.369,68.309z"/>
	<path class="st0" d="M33.212,70.159c0.189,1.107-1.229,1.472-1.661,0.459c-1.067-2.58-0.797-6.226,0.311-8.752
		c0.284-0.648,1.121-0.135,1.04,0.432c-0.189,1.324-0.432,2.62-0.378,3.971C32.591,67.62,32.982,68.849,33.212,70.159z"/>
	<path class="st0" d="M26.027,16.718c0.257,0.864-0.999,1.162-1.31,0.365c-1.121-2.796-1.796-6.267-0.918-9.224
		c0.297-0.999,1.958-0.851,1.877,0.257C25.46,11.127,25.19,13.747,26.027,16.718z"/>
	<path class="st0" d="M23.312,21.188c0.419,0.756-0.648,1.661-1.229,0.945c-2.147-2.634-4.443-5.591-6.064-8.576
		c-0.527-0.959,0.81-2.107,1.553-1.202C19.747,14.989,21.665,18.204,23.312,21.188z"/>
	<path class="st0" d="M14.345,41.838c1.27,0.148,0.999,1.945-0.23,1.729c-3.579-0.621-7.158-1.161-10.737-1.702
		c-0.77-0.122-0.581-1.459,0.189-1.364C7.146,40.974,10.739,41.447,14.345,41.838z"/>
	<path class="st0" d="M13.143,46.457c1.067-0.621,1.918,0.932,0.945,1.634c-3.241,2.323-6.874,4.416-10.359,6.361
		c-0.716,0.392-1.229-0.594-0.621-1.067C6.296,50.968,9.685,48.497,13.143,46.457z"/>
</g>
</svg>