<!-- Generator: Adobe Illustrator 23.0.2, SVG Export Plug-In  -->
<svg version="1.1" xmlns="http://www.w3.org/2000/svg" xmlns:xlink="http://www.w3.org/1999/xlink" x="0px" y="0px"
	 width="35.188px" height="30.093px" viewBox="0 0 35.188 30.093" style="enable-background:new 0 0 35.188 30.093;"
	 xml:space="preserve">
<style type="text/css">
	.st0{fill:#FFFFFF;}
</style>
<defs>
</defs>
<path class="st0" d="M34.783,16.942c0.507,0.108,0.52,0.793,0.14,1.04c-4.178,2.676-7.273,6.398-9.143,10.95
	c0.038,0.178,0.089,0.342,0.12,0.533c0.076,0.418-0.38,0.659-0.659,0.514c-0.399,0.292-1.097,0-0.888-0.564
	c0.108-0.285,0.235-0.558,0.349-0.837c-1.788-4.838-7.285-5.96-12.053-6.22c-0.634-0.032-0.767-0.913-0.152-1.103
	c6.905-2.137,10.62-8.763,8.889-15.782c-0.178-0.723,0.856-0.989,1.097-0.304C24.498,10.88,28.664,15.693,34.783,16.942z
	 M25.253,27.309c1.826-3.855,4.527-7.07,8.027-9.562c-4.622-1.338-8.11-4.673-10.36-8.82c-0.025,5.364-2.986,10.126-7.9,12.523
	C19.217,21.982,23.509,23.46,25.253,27.309z"/>
<path class="st0" d="M13.126,7.042c0.294,0.062,0.301,0.459,0.081,0.602c-2.418,1.548-4.208,3.702-5.29,6.336
	c0.022,0.103,0.051,0.198,0.07,0.308c0.044,0.242-0.22,0.382-0.382,0.297c-0.231,0.169-0.635,0-0.514-0.327
	c0.062-0.165,0.136-0.323,0.202-0.484c-1.035-2.799-4.215-3.448-6.974-3.599c-0.367-0.018-0.444-0.528-0.088-0.638
	c3.995-1.236,6.145-5.07,5.143-9.131C5.271-0.013,5.869-0.167,6.009,0.23C7.175,3.535,9.585,6.32,13.126,7.042z M7.612,13.04
	c1.057-2.231,2.619-4.091,4.644-5.532C9.582,6.734,7.564,4.804,6.262,2.405C6.247,5.509,4.534,8.264,1.691,9.651
	C4.119,9.959,6.603,10.814,7.612,13.04z"/>
</svg>