<!-- Generator: Adobe Illustrator 23.0.2, SVG Export Plug-In  -->
<svg version="1.1" xmlns="http://www.w3.org/2000/svg" xmlns:xlink="http://www.w3.org/1999/xlink" x="0px" y="0px"
	 width="60.996px" height="62.71px" viewBox="0 0 60.996 62.71" style="enable-background:new 0 0 60.996 62.71;"
	 xml:space="preserve">
<style type="text/css">
	.st0{fill:#FFFFFF;}
	.st1{fill:#E7BC3D;}
</style>
<defs>
</defs>
<g>
	<path class="st0" d="M60.411,34.154c0.662,0.459,0.891,1.661,0,2.066c-6.05,2.715-12.411,4.903-18.989,5.888
		c-0.905,6.996-3.376,13.749-6.523,20.042c-0.419,0.824-1.553,0.662-2.012,0c-3.768-5.591-7.495-11.209-10.75-17.125
		c-0.162,0.135-0.338,0.23-0.567,0.257c-6.712,0.878-13.627,0.851-20.38,0.918c-0.797,0.014-1.553-1.013-0.999-1.729
		c4.173-5.429,8.292-10.98,12.871-16.085c-0.189-0.243-0.365-0.5-0.554-0.743c-0.365,0.014-0.729,0.014-1.094-0.014
		c-0.648-0.027-0.648-0.986,0-0.999c0.108-0.013,0.23-0.027,0.338-0.027C7.766,21.176,4.16,15.449,0.473,9.831
		c-0.608-0.918,0.392-1.972,1.351-1.756c7.212,1.58,14.316,3.484,21.339,5.726c0.257,0.094,0.432,0.243,0.567,0.405
		C28.646,9.453,33.738,4.874,38.829,0.31c0.743-0.662,1.891-0.203,1.945,0.81c0.338,7.239,0.972,14.545,0.945,21.798
		c0,0.067-0.027,0.108-0.04,0.175C48.283,26.037,54.509,30.008,60.411,34.154z M57.332,34.978c-2.377-1.594-4.781-3.079-7.225-4.511
		c-0.5,2.661-1.351,5.389-2.323,7.941C51.011,37.409,54.185,36.315,57.332,34.978z M46.784,38.719c0.5-2.971,1.229-6.077,2.282-8.86
		c-1.634-0.945-3.282-1.877-4.956-2.809c0.662,5.24-1.405,9.94-4.889,13.316c-3.822,3.714-9.373,5.821-14.843,5.254
		c1.162,1.621,2.283,3.268,3.417,4.903c0.054-0.27,0.284-0.486,0.621-0.378c3.16,1.067,6.226-0.122,8.225-2.688
		c0.324-0.419,0.878-0.189,1.094,0.189c0.54-2.012,1.04-4.052,1.499-6.145c0.054-0.311,0.243-0.513,0.473-0.635
		c0.081-0.041,0.162-0.068,0.243-0.095c0.094-0.081,0.203-0.162,0.338-0.189C42.476,39.989,44.636,39.367,46.784,38.719z
		 M42.624,26.348c0-0.027,0.014-0.068,0.027-0.095c-0.77-0.419-1.526-0.837-2.282-1.256c-0.621-0.338-0.689-0.918-0.459-1.378
		c-0.176-0.162-0.311-0.405-0.338-0.702c-0.014-0.135-0.027-0.257-0.027-0.378c-4.308,14.154-19.002,22-33.386,17.868
		c-0.864,1.134-1.729,2.282-2.593,3.417c5.996-0.176,12.006-0.635,18.003-0.689c0.378,0,0.648,0.149,0.81,0.365
		c0.243-0.027,0.513,0.054,0.702,0.311c0.149,0.203,0.284,0.419,0.446,0.621c0.027,0,0.054-0.014,0.081-0.014
		c5.051,0.432,10.156-0.851,13.87-4.47C41.355,36.18,42.354,31.534,42.624,26.348z M38.505,20.041
		c0.121-0.419,0.459-0.581,0.797-0.567c-0.378-5.281-0.513-10.615-0.716-15.909c-1.999,1.783-3.998,3.566-6.01,5.335
		c0.054,0.068,0.094,0.162,0.108,0.257C35.156,22.459,24.81,34.1,11.413,33.587c-0.068-0.014-0.122-0.027-0.176-0.041
		c-1.418,1.999-2.877,3.957-4.349,5.915C21.61,42.393,34.399,34.424,38.505,20.041z M33.697,59.22
		c1.58-3.484,2.782-7.009,3.782-10.615c-2.093,2.796-5.942,3.822-9.197,2.62C30.091,53.886,31.901,56.546,33.697,59.22z
		 M11.859,32.642c12.29-0.567,20.42-10.548,19.326-22.541c-2.282,1.999-4.605,3.971-6.955,5.902
		c0.014,0.054,0.027,0.094,0.027,0.162c-0.446,5.497-4.538,10.116-9.791,11.223c0.203,0.351,0.405,0.689,0.594,1.026
		c0.378,0.702-0.5,1.54-1.094,1.121C13.277,30.589,12.574,31.615,11.859,32.642z M21.934,15.949c-1.31-0.405-2.62-0.81-3.944-1.202
		c-0.189,3.525-3.633,6.348-7.077,6.658c1.013,1.607,1.972,3.228,2.917,4.862c4.308-1.094,7.847-4.632,8.63-9.089
		C21.893,17.151,21.434,16.476,21.934,15.949z M14.627,18.609c1.283-1.27,1.783-2.62,1.999-4.254
		c-1.418-0.419-2.836-0.81-4.254-1.202c-0.23,1.999-2.188,3.525-4.214,3.971c0.743,1.134,1.486,2.282,2.215,3.417
		C11.967,20.446,13.452,19.757,14.627,18.609z M9.792,15.166c0.743-0.702,1.026-1.486,1.256-2.363
		c-2.282-0.608-4.592-1.188-6.888-1.729c1.161,1.756,2.323,3.511,3.484,5.267C8.442,16.151,9.185,15.746,9.792,15.166z"/>
	<path class="st1" d="M49.066,29.86c-1.053,2.782-1.783,5.888-2.282,8.86c-2.147,0.648-4.308,1.27-6.496,1.864
		c-0.135,0.027-0.243,0.108-0.338,0.189c-0.081,0.027-0.162,0.054-0.243,0.095l-0.486-0.5c3.484-3.376,5.551-8.076,4.889-13.316
		C45.784,27.982,47.432,28.914,49.066,29.86z"/>
	<path class="st1" d="M39.221,40.367l0.486,0.5c-0.23,0.122-0.419,0.324-0.473,0.635c-0.459,2.093-0.959,4.133-1.499,6.145
		c-0.216-0.378-0.77-0.608-1.094-0.189c-1.999,2.566-5.065,3.754-8.225,2.688c-0.338-0.108-0.567,0.108-0.621,0.378
		c-1.134-1.634-2.255-3.282-3.417-4.903C29.848,46.188,35.399,44.081,39.221,40.367z"/>
	<path class="st1" d="M39.302,19.474c-0.338-0.014-0.675,0.149-0.797,0.567C34.399,34.424,21.61,42.393,6.889,39.462
		c1.472-1.958,2.931-3.917,4.349-5.915c0.054,0.014,0.108,0.027,0.176,0.041C24.81,34.1,35.156,22.459,32.684,9.156
		c-0.014-0.095-0.054-0.189-0.108-0.257c2.012-1.769,4.011-3.552,6.01-5.335C38.789,8.859,38.924,14.193,39.302,19.474z"/>
	<path class="st1" d="M17.99,14.747c1.324,0.392,2.634,0.797,3.944,1.202c-0.5,0.527-0.04,1.202,0.527,1.229
		c-0.783,4.457-4.322,7.995-8.63,9.089c-0.945-1.634-1.904-3.255-2.917-4.862C14.357,21.094,17.801,18.272,17.99,14.747z"/>
	<path class="st1" d="M11.048,12.802c-0.23,0.878-0.513,1.661-1.256,2.363c-0.608,0.581-1.35,0.986-2.147,1.175
		c-1.161-1.756-2.323-3.511-3.484-5.267C6.456,11.614,8.766,12.194,11.048,12.802z"/>
</g>
</svg>