<!-- Generator: Adobe Illustrator 23.0.2, SVG Export Plug-In  -->
<svg version="1.1" xmlns="http://www.w3.org/2000/svg" xmlns:xlink="http://www.w3.org/1999/xlink" x="0px" y="0px"
	 width="145.549px" height="74.862px" viewBox="0 0 145.549 74.862" style="enable-background:new 0 0 145.549 74.862;"
	 xml:space="preserve">
<style type="text/css">
	.st0{fill:#FFFFFF;}
	.st1{fill:#E7BC3D;}
</style>
<defs>
</defs>
<g>
	<path class="st0" d="M145.544,57.59c0.094,0.945-1.094,1.459-1.823,1.04c-5.686-3.268-11.358-6.523-17.044-9.792
		c0.972,5.308,1.634,10.642,1.945,16.044c0.054,0.891-1.067,1.526-1.81,1.04c-4.727-3.079-9.224-6.415-13.56-9.994
		c0.581,5.888,0.783,11.777,0.567,17.719c-0.027,0.999-1.323,1.661-2.066,0.851C95.358,56.509,74.748,36.184,48.088,41.37
		c-0.243,0.054-0.446,0.014-0.648-0.054c-0.932,6.334,3.39,15.869,4.956,21.852c0.243,0.945-0.891,2.039-1.783,1.364l-9.373-7.05
		c-1.391-1.053-2.782-2.093-4.173-3.147c-2.269-1.702-2.431-2.161-5.321-1.918c-3.768,0.297-7.914,3.444-11.25,5.227
		c-3.025,1.607-6.05,3.201-9.062,4.808c-0.864,0.459-2.161-0.311-1.783-1.364c2.431-6.631,4.848-13.262,7.279-19.894
		c-4.092-2.215-8.036-4.686-12.006-7.09c-1.742-1.067-3.768-1.796-4.767-3.62c-0.189-0.351-0.23-0.824,0-1.188
		c2.904-4.443,11.615-1.594,16.125-2.08c5.753-0.621,6.051-4.376,8.036-9.373c1.675-4.16,3.336-8.333,4.997-12.506
		c0.459-1.121,1.891-1.148,2.323,0c1.35,3.484,2.742,10.251,5.375,14.181C54.098,1.974,80.974-4.914,104.231,3.703
		C126.947,12.103,142.964,33.699,145.544,57.59z M125.623,45.448c5.74,3.295,11.48,6.591,17.22,9.886
		c-3.295-22.527-19.286-42.677-41.097-49.957C79.664-1.996,54.517,4.702,38.121,20.909c0.567,0.581,1.175,1.053,1.837,1.337
		c2.363,1.013,7.86-0.162,10.467-0.216c3.498-0.068,6.982-0.149,10.48-0.216c1.067-0.027,1.567,1.323,0.851,2.066
		c-4.052,4.187-11.304,9.481-13.64,15.045c26.228-4.713,46.742,13.749,63.341,31.67c0.081-5.848-0.202-11.642-0.905-17.476
		c-0.149-1.148,1.364-1.459,2.053-0.864c4.295,3.701,8.752,7.077,13.424,10.237c-0.405-5.281-1.121-10.48-2.188-15.68
		C123.638,45.8,124.664,44.908,125.623,45.448z M50.047,32.483c2.647-2.728,5.294-5.456,7.941-8.184
		c-6.888,0.135-13.762,0.284-20.636,0.419c-0.567,0.014-0.986-0.392-1.175-0.891c-1.904-4.957-3.808-9.927-5.713-14.883
		c-2.647,6.591-5.281,13.181-7.914,19.772c-0.203,0.5-0.581,0.878-1.161,0.891c-2.296,0-17.192-1.688-18.57,0.486
		c0.257,0,14.383,9.143,15.126,9.67c0.162,0.108,0.257,0.257,0.324,0.405c0.716,0.027,1.391,0.594,1.081,1.445
		c-2.107,5.753-4.214,11.493-6.307,17.247c3.579-1.904,7.171-3.809,10.764-5.713c2.201-1.175,6.064-4.376,8.724-4.254
		c2.566,0.122,4.862,2.674,6.807,4.146c3.282,2.472,6.564,4.93,9.846,7.401c-1.067-4.038-2.12-8.063-3.174-12.101
		c-0.675-2.526-2.215-5.902-1.675-8.671C44.888,36.805,48.169,34.428,50.047,32.483z"/>
	<path class="st1" d="M142.843,55.334c-5.74-3.295-11.48-6.591-17.22-9.886c-0.959-0.54-1.985,0.351-1.783,1.364
		c1.067,5.2,1.783,10.399,2.188,15.68c-4.673-3.16-9.13-6.537-13.424-10.237c-0.689-0.594-2.201-0.284-2.053,0.864
		c0.702,5.834,0.986,11.628,0.905,17.476c-16.598-17.922-37.113-36.384-63.341-31.67c2.336-5.564,9.589-10.858,13.64-15.045
		c0.716-0.743,0.216-2.093-0.851-2.066c-3.498,0.068-6.982,0.149-10.48,0.216c-2.607,0.054-8.103,1.229-10.467,0.216
		c-0.662-0.284-1.27-0.756-1.837-1.337C54.517,4.702,79.664-1.996,101.746,5.378C123.557,12.657,139.548,32.807,142.843,55.334z"/>
	<path class="st1" d="M57.988,24.299c-2.647,2.728-5.294,5.456-7.941,8.184c-1.877,1.945-5.159,4.322-5.713,7.185
		c-0.54,2.769,0.999,6.145,1.675,8.671c1.053,4.038,2.107,8.063,3.174,12.101c-3.282-2.472-6.564-4.93-9.846-7.401
		c-1.945-1.472-4.241-4.025-6.807-4.146c-2.661-0.122-6.523,3.079-8.724,4.254c-3.592,1.904-7.185,3.809-10.764,5.713
		c2.093-5.753,4.2-11.493,6.307-17.247c0.311-0.851-0.365-1.418-1.081-1.445c-0.067-0.149-0.162-0.297-0.324-0.405
		c-0.743-0.527-14.87-9.67-15.126-9.67c1.378-2.174,16.274-0.486,18.57-0.486c0.581-0.014,0.959-0.392,1.161-0.891
		c2.634-6.591,5.267-13.181,7.914-19.772c1.904,4.957,3.808,9.927,5.713,14.883c0.189,0.5,0.608,0.905,1.175,0.891
		C44.226,24.582,51.1,24.434,57.988,24.299z"/>
</g>
</svg>